<svg xmlns="http://www.w3.org/2000/svg" viewBox="0 0 800 500">
  <defs>
    <linearGradient id="bg4" x1="0%" y1="0%" x2="100%" y2="100%">
      <stop offset="0%" style="stop-color:#0a1a2e"/>
      <stop offset="50%" style="stop-color:#0d2a40"/>
      <stop offset="100%" style="stop-color:#0a1a2e"/>
    </linearGradient>
  </defs>
  <rect width="800" height="500" fill="url(#bg4)"/>
  <circle cx="400" cy="250" r="170" fill="rgba(3,169,244,0.04)"/>
  <ellipse cx="400" cy="430" rx="310" ry="50" fill="rgba(0,0,0,0.3)"/>
  <g transform="translate(400,230)">
    <path d="M-50,-30 L-30,-60 L20,-60 L40,-30 L30,40 L-40,40 Z" fill="none" stroke="#4dd0e1" stroke-width="3" opacity="0.8"/>
    <path d="M-30,-60 L0,-75 L30,-60" fill="none" stroke="#4dd0e1" stroke-width="2" opacity="0.6"/>
    <line x1="0" y1="-75" x2="0" y2="-90" stroke="#4dd0e1" stroke-width="2"/>
    <circle cx="0" cy="-95" r="5" fill="#4dd0e1" opacity="0.6"/>
    <rect x="-20" y="-20" width="40" height="8" rx="4" fill="#26c6da" opacity="0.5"/>
    <rect x="-15" y="0" width="30" height="6" rx="3" fill="#26c6da" opacity="0.4"/>
    <rect x="-10" y="20" width="20" height="4" rx="2" fill="#26c6da" opacity="0.3"/>
    <text x="0" y="-100" text-anchor="middle" fill="#80deea" font-family="Arial" font-size="10">💧</text>
  </g>
  <g transform="translate(280,170)">
    <circle cx="0" cy="0" r="15" fill="none" stroke="#4dd0e1" stroke-width="2" opacity="0.4"/>
    <text x="0" y="5" text-anchor="middle" fill="#4dd0e1" font-family="Arial" font-size="12">∞</text>
  </g>
  <g transform="translate(520,170)">
    <circle cx="0" cy="0" r="15" fill="none" stroke="#4dd0e1" stroke-width="2" opacity="0.4"/>
    <text x="0" y="5" text-anchor="middle" fill="#4dd0e1" font-family="Arial" font-size="12">∞</text>
  </g>
  <rect x="150" y="380" width="500" height="60" rx="8" fill="rgba(0,0,0,0.5)"/>
  <text x="400" y="418" text-anchor="middle" fill="#4dd0e1" font-family="Arial,sans-serif" font-size="22" font-weight="bold">MANTENIMIENTO DE ACCESORIOS</text>
  <text x="400" y="455" text-anchor="middle" fill="#80deea" font-family="Arial,sans-serif" font-size="13">Bongs · Pipas · Grinders · Limpieza profunda · Cuidado diario</text>
  <g transform="translate(80,120)">
    <rect x="0" y="0" width="40" height="40" rx="8" fill="rgba(3,169,244,0.2)"/>
    <text x="20" y="27" text-anchor="middle" fill="#03a9f4" font-family="Arial" font-size="22">🧹</text>
  </g>
  <g transform="translate(680,120)">
    <rect x="0" y="0" width="40" height="40" rx="8" fill="rgba(0,188,212,0.2)"/>
    <text x="20" y="27" text-anchor="middle" fill="#00bcd4" font-family="Arial" font-size="22">✨</text>
  </g>
  <g transform="translate(395,130)">
    <rect x="0" y="0" width="40" height="40" rx="8" fill="rgba(255,87,34,0.2)"/>
    <text x="20" y="27" text-anchor="middle" fill="#ff5722" font-family="Arial" font-size="22">🛠️</text>
  </g>
</svg>
