<svg xmlns="http://www.w3.org/2000/svg" viewBox="0 0 800 500">
  <defs>
    <linearGradient id="bg3" x1="0%" y1="0%" x2="100%" y2="100%">
      <stop offset="0%" style="stop-color:#1a1a0a"/>
      <stop offset="50%" style="stop-color:#3a2a1a"/>
      <stop offset="100%" style="stop-color:#2a1a0a"/>
    </linearGradient>
    <linearGradient id="gold" x1="0%" y1="0%" x2="100%" y2="100%">
      <stop offset="0%" style="stop-color:#ffd54f"/>
      <stop offset="100%" style="stop-color:#ff8f00"/>
    </linearGradient>
  </defs>
  <rect width="800" height="500" fill="url(#bg3)"/>
  <circle cx="400" cy="250" r="160" fill="rgba(255,213,79,0.04)"/>
  <ellipse cx="400" cy="430" rx="320" ry="55" fill="rgba(0,0,0,0.3)"/>
  <g transform="translate(400,230)">
    <path d="M0,40 C-20,10 -50,-10 -60,-30 C-40,-25 -20,-15 -10,0 C-15,-25 -30,-55 -25,-70 C-10,-60 0,-30 0,0 C0,-30 10,-60 25,-70 C30,-55 15,-25 10,0 C20,-15 40,-25 60,-30 C50,-10 20,10 0,40Z" fill="url(#gold)" opacity="0.85"/>
    <line x1="0" y1="40" x2="0" y2="-70" stroke="#ff8f00" stroke-width="2"/>
  </g>
  <circle cx="200" cy="170" r="5" fill="#ffd54f" opacity="0.8"/>
  <circle cx="600" cy="170" r="5" fill="#ffd54f" opacity="0.8"/>
  <circle cx="150" cy="200" r="3" fill="#ffd54f" opacity="0.5"/>
  <circle cx="650" cy="200" r="3" fill="#ffd54f" opacity="0.5"/>
  <line x1="200" y1="170" x2="280" y2="190" stroke="#ffd54f" stroke-width="1" opacity="0.3" stroke-dasharray="4,4"/>
  <line x1="600" y1="170" x2="520" y2="190" stroke="#ffd54f" stroke-width="1" opacity="0.3" stroke-dasharray="4,4"/>
  <line x1="200" y1="170" x2="340" y2="140" stroke="#ffd54f" stroke-width="0.5" opacity="0.2" stroke-dasharray="2,3"/>
  <line x1="600" y1="170" x2="460" y2="140" stroke="#ffd54f" stroke-width="0.5" opacity="0.2" stroke-dasharray="2,3"/>
  <rect x="150" y="380" width="500" height="60" rx="8" fill="rgba(0,0,0,0.5)"/>
  <text x="400" y="418" text-anchor="middle" fill="#ffd54f" font-family="Arial,sans-serif" font-size="22" font-weight="bold">HISTORIA Y CULTURA CANNÁBICA</text>
  <text x="400" y="455" text-anchor="middle" fill="#ffcc80" font-family="Arial,sans-serif" font-size="13">12,000 años · China · India · América · Legalización · Activismo</text>
  <g transform="translate(80,120)">
    <rect x="0" y="0" width="40" height="40" rx="8" fill="rgba(255,213,79,0.2)"/>
    <text x="20" y="27" text-anchor="middle" fill="#ffd54f" font-family="Arial" font-size="22">📜</text>
  </g>
  <g transform="translate(680,120)">
    <rect x="0" y="0" width="40" height="40" rx="8" fill="rgba(255,152,0,0.2)"/>
    <text x="20" y="27" text-anchor="middle" fill="#ff9800" font-family="Arial" font-size="22">🌍</text>
  </g>
  <g transform="translate(395,130)">
    <rect x="0" y="0" width="40" height="40" rx="8" fill="rgba(244,67,54,0.2)"/>
    <text x="20" y="27" text-anchor="middle" fill="#f44336" font-family="Arial" font-size="22">⚖️</text>
  </g>
</svg>
