<svg xmlns="http://www.w3.org/2000/svg" viewBox="0 0 800 500">
  <defs>
    <linearGradient id="bg5" x1="0%" y1="0%" x2="100%" y2="100%">
      <stop offset="0%" style="stop-color:#0a2a1a"/>
      <stop offset="50%" style="stop-color:#0d351f"/>
      <stop offset="100%" style="stop-color:#0a2a1a"/>
    </linearGradient>
  </defs>
  <rect width="800" height="500" fill="url(#bg5)"/>
  <circle cx="400" cy="250" r="175" fill="rgba(139,195,74,0.03)"/>
  <ellipse cx="400" cy="430" rx="330" ry="55" fill="rgba(0,0,0,0.3)"/>
  <g transform="translate(400,200)">
    <circle cx="0" cy="0" r="80" fill="none" stroke="#8bc34a" stroke-width="1.5" opacity="0.3"/>
    <circle cx="0" cy="0" r="55" fill="none" stroke="#8bc34a" stroke-width="1" opacity="0.2"/>
    <text x="0" y="5" text-anchor="middle" fill="#8bc34a" font-family="Arial,sans-serif" font-size="24" font-weight="bold">NPK</text>
    <text x="0" y="25" text-anchor="middle" fill="#aed581" font-family="Arial,sans-serif" font-size="12">· Ca · Mg · Fe · Zn ·</text>
  </g>
  <g transform="translate(220,170)">
    <text x="0" y="0" text-anchor="middle" fill="#66bb6a" font-family="Arial" font-size="14" font-weight="bold">N</text>
    <text x="0" y="14" text-anchor="middle" fill="#a5d6a7" font-family="Arial" font-size="10">Alto</text>
  </g>
  <g transform="translate(400,130)">
    <text x="0" y="0" text-anchor="middle" fill="#ffb74d" font-family="Arial" font-size="14" font-weight="bold">P</text>
    <text x="0" y="14" text-anchor="middle" fill="#ffcc80" font-family="Arial" font-size="10">Medio</text>
  </g>
  <g transform="translate(580,170)">
    <text x="0" y="0" text-anchor="middle" fill="#ef5350" font-family="Arial" font-size="14" font-weight="bold">K</text>
    <text x="0" y="14" text-anchor="middle" fill="#ef9a9a" font-family="Arial" font-size="10">Medio</text>
  </g>
  <rect x="150" y="380" width="500" height="60" rx="8" fill="rgba(0,0,0,0.5)"/>
  <text x="400" y="418" text-anchor="middle" fill="#8bc34a" font-family="Arial,sans-serif" font-size="22" font-weight="bold">GUÍA DE NUTRIENTES</text>
  <text x="400" y="455" text-anchor="middle" fill="#aed581" font-family="Arial,sans-serif" font-size="13">Vegetación · Floración · Engorde · pH · Deficiencias · Flushing</text>
  <g transform="translate(80,120)">
    <rect x="0" y="0" width="40" height="40" rx="8" fill="rgba(139,195,74,0.2)"/>
    <text x="20" y="27" text-anchor="middle" fill="#8bc34a" font-family="Arial" font-size="22">🧪</text>
  </g>
  <g transform="translate(680,120)">
    <rect x="0" y="0" width="40" height="40" rx="8" fill="rgba(76,175,80,0.2)"/>
    <text x="20" y="27" text-anchor="middle" fill="#4caf50" font-family="Arial" font-size="22">🌿</text>
  </g>
  <g transform="translate(395,130)">
    <rect x="0" y="0" width="40" height="40" rx="8" fill="rgba(255,193,7,0.2)"/>
    <text x="20" y="27" text-anchor="middle" fill="#ffc107" font-family="Arial" font-size="22">📊</text>
  </g>
</svg>
