<svg xmlns="http://www.w3.org/2000/svg" viewBox="0 0 800 500">
  <defs>
    <linearGradient id="bg2" x1="0%" y1="0%" x2="100%" y2="100%">
      <stop offset="0%" style="stop-color:#1a0a2e"/>
      <stop offset="50%" style="stop-color:#2d1a4e"/>
      <stop offset="100%" style="stop-color:#3a2060"/>
    </linearGradient>
    <linearGradient id="vapebody" x1="0" y1="0" x2="0" y2="1">
      <stop offset="0%" style="stop-color:#607d8b"/>
      <stop offset="100%" style="stop-color:#37474f"/>
    </linearGradient>
    <linearGradient id="glow" x1="0%" y1="0%" x2="0%" y2="100%">
      <stop offset="0%" style="stop-color:#e040fb;stop-opacity:0.4"/>
      <stop offset="100%" style="stop-color:#e040fb;stop-opacity:0"/>
    </linearGradient>
  </defs>
  <rect width="800" height="500" fill="url(#bg2)"/>
  <circle cx="400" cy="250" r="180" fill="rgba(224,64,251,0.04)"/>
  <ellipse cx="400" cy="430" rx="300" ry="50" fill="rgba(0,0,0,0.3)"/>
  <g transform="translate(400,220)">
    <rect x="-50" y="-20" width="100" height="140" rx="20" fill="url(#vapebody)"/>
    <rect x="-35" y="0" width="70" height="80" rx="10" fill="#263238"/>
    <rect x="-25" y="10" width="50" height="60" rx="5" fill="rgba(224,64,251,0.15)"/>
    <text x="0" y="47" text-anchor="middle" fill="#ce93d8" font-family="Arial" font-size="11">150°C</text>
    <rect x="-40" y="-15" width="80" height="15" rx="5" fill="#455a64"/>
    <circle cx="25" cy="-7" r="4" fill="#4caf50"/>
    <rect x="-45" y="95" width="90" height="25" rx="5" fill="#455a64"/>
    <rect x="-35" y="100" width="12" height="15" rx="3" fill="#8bc34a"/>
    <rect x="-6" y="100" width="12" height="15" rx="3" fill="#8bc34a"/>
    <rect x="23" y="100" width="12" height="15" rx="3" fill="#8bc34a"/>
  </g>
  <g opacity="0.3">
    <ellipse cx="380" cy="180" rx="80" ry="40" fill="url(#glow)" opacity="0.5">
      <animate attributeName="opacity" values="0.3;0.6;0.3" dur="3s" repeatCount="indefinite"/>
    </ellipse>
  </g>
  <rect x="150" y="380" width="500" height="60" rx="8" fill="rgba(0,0,0,0.5)"/>
  <text x="400" y="418" text-anchor="middle" fill="#ce93d8" font-family="Arial,sans-serif" font-size="22" font-weight="bold">GUÍA COMPLETA DE VAPORIZADORES</text>
  <text x="400" y="455" text-anchor="middle" fill="#b39ddb" font-family="Arial,sans-serif" font-size="13">Convección · Conducción · Temperaturas · Mantenimiento · Salud</text>
  <g transform="translate(80,120)">
    <rect x="0" y="0" width="40" height="40" rx="8" fill="rgba(224,64,251,0.2)"/>
    <text x="20" y="27" text-anchor="middle" fill="#e040fb" font-family="Arial" font-size="22">💨</text>
  </g>
  <g transform="translate(680,120)">
    <rect x="0" y="0" width="40" height="40" rx="8" fill="rgba(156,39,176,0.2)"/>
    <text x="20" y="27" text-anchor="middle" fill="#9c27b0" font-family="Arial" font-size="22">🌡️</text>
  </g>
  <g transform="translate(400,130)">
    <rect x="0" y="0" width="40" height="40" rx="8" fill="rgba(0,188,212,0.2)"/>
    <text x="20" y="27" text-anchor="middle" fill="#00bcd4" font-family="Arial" font-size="22">🔬</text>
  </g>
</svg>
